<?xml version="1.0" encoding="utf-8"?>
<!-- Generator: Adobe Illustrator 27.5.0, SVG Export Plug-In . SVG Version: 6.00 Build 0)  -->
<svg version="1.1" id="Layer_1" xmlns="http://www.w3.org/2000/svg" xmlns:xlink="http://www.w3.org/1999/xlink" x="0px" y="0px"
	 viewBox="0 0 734.5 530.6" style="enable-background:new 0 0 734.5 530.6;" xml:space="preserve">
<style type="text/css">
	.st0{fill:#E1E9F2;}
</style>
<rect x="249.4" y="57.4" class="st0" width="375" height="375"/>
<image style="overflow:visible;enable-background:new    ;" width="1446" height="1311" xlink:href="FBCE5C2F2A1BC451.png"  transform="matrix(0.1001 0 0 0.1001 481.3448 297.87)">
</image>
<image style="overflow:visible;enable-background:new    ;" width="2307" height="2322" xlink:href="FBCE5C2F2A1BC453.png"  transform="matrix(7.000000e-02 0 0 7.000000e-02 249.53 0)">
</image>
<image style="overflow:visible;enable-background:new    ;" width="1932" height="1150" xlink:href="FBCE5C2F2A1BC456.png"  transform="matrix(0.1002 0 0 0.1002 249.45 314.5407)">
</image>
<image style="overflow:visible;enable-background:new    ;" width="785" height="1545" xlink:href="FBCE5C2F2A1BC457.png"  transform="matrix(8.000000e-02 0 0 8.000000e-02 564.84 194.85)">
</image>
<image style="overflow:visible;enable-background:new    ;" width="1063" height="963" xlink:href="FBCE5C2F2A1BC452.png"  transform="matrix(0.1002 0 0 0.1002 515.3996 69.76)">
</image>
<image style="overflow:visible;enable-background:new    ;" width="3000" height="3333" xlink:href="Links/119.1.png"  transform="matrix(3.975791e-02 6.942124e-02 -6.942124e-02 3.975791e-02 241.81 105)">
</image>
</svg>
